<svg xmlns="http://www.w3.org/2000/svg" xmlns:xlink="http://www.w3.org/1999/xlink" version="1.1" width="512px" height="512px" style="shape-rendering:geometricPrecision; text-rendering:geometricPrecision; image-rendering:optimizeQuality; fill-rule:evenodd; clip-rule:evenodd">
<g><path style="opacity:0.994" fill="#ec5000" d="M 396.5,214.5 C 394.231,215.976 391.898,217.476 389.5,219C 388.549,219.718 388.383,220.551 389,221.5C 409.384,247.549 429.384,273.883 449,300.5C 450.307,302.192 451.807,303.525 453.5,304.5C 458.347,312.196 463.68,319.529 469.5,326.5C 470.171,327.847 470.171,329.014 469.5,330C 446.092,342.453 422.925,355.286 400,368.5C 399.667,361.5 399.333,354.5 399,347.5C 397.648,345.568 395.815,344.234 393.5,343.5C 387.147,346.34 381.147,349.673 375.5,353.5C 374.167,353.833 372.833,354.167 371.5,354.5C 334.384,335.108 297.051,315.941 259.5,297C 256.829,297.429 254.162,298.263 251.5,299.5C 244.243,282.236 237.076,264.903 230,247.5C 222.353,232.19 211.519,219.69 197.5,210C 174.283,196.224 150.616,183.224 126.5,171C 113.443,166.369 100.11,165.369 86.5,168C 71.8442,172.275 57.1775,176.442 42.5,180.5C 89.5,152.5 136.5,124.5 183.5,96.5C 198.786,91.9054 214.119,87.4054 229.5,83C 250.472,78.7283 270.139,82.0616 288.5,93C 307.336,104.253 326.336,115.253 345.5,126C 357.434,134.703 366.934,145.536 374,158.5C 381.796,177.086 389.296,195.752 396.5,214.5 Z"/></g>
<g><path style="opacity:1" fill="#e13400" d="M 183.5,96.5 C 136.5,124.5 89.5,152.5 42.5,180.5C 41.1917,181.232 39.8584,182.066 38.5,183C 110.293,233.642 181.626,284.809 252.5,336.5C 247.967,345.939 246.3,355.939 247.5,366.5C 236.031,360.265 224.698,353.765 213.5,347C 170.757,324.962 127.757,303.462 84.5,282.5C 82.3661,281.098 80.6994,279.265 79.5,277C 84.614,246.007 74.9474,220.673 50.5,201C 33.7686,191.784 22.602,196.284 17,214.5C 16.1706,224.579 16.6706,234.579 18.5,244.5C 15.4475,241.424 12.6142,238.09 10,234.5C 6.7257,227.614 3.2257,220.947 -0.5,214.5C -0.5,200.833 -0.5,187.167 -0.5,173.5C 0.93142,171.563 2.59809,169.73 4.5,168C 53.1667,139.667 101.833,111.333 150.5,83C 154.261,82.2617 157.928,82.5951 161.5,84C 168.698,88.4316 176.032,92.5983 183.5,96.5 Z"/></g>
<g><path style="opacity:1" fill="#61584f" d="M 359.5,166.5 C 364.931,182.698 370.931,198.698 377.5,214.5C 377.167,214.833 376.833,215.167 376.5,215.5C 358.466,205.111 340.466,194.778 322.5,184.5C 332.94,178.108 343.607,171.941 354.5,166C 356.387,165.22 358.054,165.387 359.5,166.5 Z"/></g>
<g><path style="opacity:1" fill="#3b2f24" d="M 359.5,166.5 C 362.617,166.642 365.117,167.976 367,170.5C 374.483,186.972 381.15,203.639 387,220.5C 344.482,245.759 301.815,270.759 259,295.5C 251.911,280.924 245.578,265.924 240,250.5C 236.312,241.143 238.479,233.643 246.5,228C 271.722,213.272 297.055,198.772 322.5,184.5C 340.466,194.778 358.466,205.111 376.5,215.5C 376.833,215.167 377.167,214.833 377.5,214.5C 370.931,198.698 364.931,182.698 359.5,166.5 Z"/></g>
<g><path style="opacity:1" fill="#872e02" d="M 251.5,299.5 C 261.768,306.31 272.101,313.143 282.5,320C 308.833,342.333 333.167,366.667 355.5,393C 362.279,398.706 370.112,401.872 379,402.5C 434.53,393.75 478.696,366.75 511.5,321.5C 511.5,328.167 511.5,334.833 511.5,341.5C 509.719,348.732 506.552,355.399 502,361.5C 470.753,396.214 432.253,418.714 386.5,429C 372.233,431.004 358.566,429.004 345.5,423C 337.926,418.576 330.259,414.409 322.5,410.5C 319.736,407.843 316.569,405.51 313,403.5C 314.228,381.855 308.228,362.522 295,345.5C 288.533,337.359 280.366,331.859 270.5,329C 263.004,327.915 257.004,330.415 252.5,336.5C 181.626,284.809 110.293,233.642 38.5,183C 39.8584,182.066 41.1917,181.232 42.5,180.5C 57.1775,176.442 71.8442,172.275 86.5,168C 100.11,165.369 113.443,166.369 126.5,171C 150.616,183.224 174.283,196.224 197.5,210C 211.519,219.69 222.353,232.19 230,247.5C 237.076,264.903 244.243,282.236 251.5,299.5 Z"/></g>
<g><path style="opacity:1" fill="#24170b" d="M 110.5,182.5 C 117.462,182.059 124.129,183.226 130.5,186C 156.332,201.082 181.999,216.415 207.5,232C 213.232,237.073 217.399,243.24 220,250.5C 225.333,264.5 230.667,278.5 236,292.5C 236.749,293.635 236.583,294.635 235.5,295.5C 187.833,268 140.167,240.5 92.5,213C 83.9538,204.172 84.6204,196.172 94.5,189C 99.9044,186.706 105.238,184.54 110.5,182.5 Z"/></g>
<g><path style="opacity:1" fill="#2f373c" d="M 84.5,282.5 C 79.062,285.053 73.7287,287.887 68.5,291C 60.6514,292.913 53.318,291.58 46.5,287C 32.2908,276.091 22.9575,261.925 18.5,244.5C 16.6706,234.579 16.1706,224.579 17,214.5C 22.602,196.284 33.7686,191.784 50.5,201C 74.9474,220.673 84.614,246.007 79.5,277C 80.6994,279.265 82.3661,281.098 84.5,282.5 Z"/></g>
<g><path style="opacity:1" fill="#c7c8c8" d="M 39.5,220.5 C 46.766,220.575 52.5993,223.575 57,229.5C 65.4396,240.332 67.1062,251.998 62,264.5C 56.7702,268.521 51.6035,268.354 46.5,264C 34.796,253.002 30.9626,239.835 35,224.5C 36.3968,222.93 37.8968,221.596 39.5,220.5 Z"/></g>
<g><path style="opacity:1" fill="#647882" d="M 42.5,231.5 C 48.0211,231.345 52.1877,233.679 55,238.5C 57.3104,243.266 57.9771,248.266 57,253.5C 53.5402,257.446 50.0402,257.446 46.5,253.5C 40.3183,246.961 38.985,239.628 42.5,231.5 Z"/></g>
<g><path style="opacity:1" fill="#612c19" d="M 101.5,242.5 C 100.505,254.989 100.171,267.656 100.5,280.5C 99.1748,267.661 99.1748,254.661 100.5,241.5C 101.107,241.624 101.44,241.957 101.5,242.5 Z"/></g>
<g><path style="opacity:1" fill="#28292c" d="M 101.5,242.5 C 114.709,250.932 127.709,259.598 140.5,268.5C 132.273,264.552 123.94,260.886 115.5,257.5C 115.168,266.525 115.502,275.525 116.5,284.5C 124.875,290.557 133.208,296.557 141.5,302.5C 127.666,295.417 114,288.084 100.5,280.5C 100.171,267.656 100.505,254.989 101.5,242.5 Z"/></g>
<g><path style="opacity:1" fill="#872e02" d="M 140.5,268.5 C 162.613,282.396 184.613,296.563 206.5,311C 207.816,319.774 207.816,328.607 206.5,337.5C 184.612,326.059 162.946,314.392 141.5,302.5C 133.208,296.557 124.875,290.557 116.5,284.5C 115.502,275.525 115.168,266.525 115.5,257.5C 123.94,260.886 132.273,264.552 140.5,268.5 Z"/></g>
<g><path style="opacity:1" fill="#e23400" d="M 396.5,214.5 C 430.833,233.182 460.833,257.349 486.5,287C 488.179,287.395 489.845,287.228 491.5,286.5C 492.938,286.719 494.271,287.219 495.5,288C 496.961,292.729 498.127,297.562 499,302.5C 503.416,308.068 507.583,313.735 511.5,319.5C 511.5,320.167 511.5,320.833 511.5,321.5C 478.696,366.75 434.53,393.75 379,402.5C 370.112,401.872 362.279,398.706 355.5,393C 333.167,366.667 308.833,342.333 282.5,320C 272.101,313.143 261.768,306.31 251.5,299.5C 254.162,298.263 256.829,297.429 259.5,297C 297.051,315.941 334.384,335.108 371.5,354.5C 363.713,358.558 355.713,362.392 347.5,366C 354.807,372.319 362.474,378.152 370.5,383.5C 371.332,375.521 371.832,367.521 372,359.5C 372.926,357.308 374.093,355.308 375.5,353.5C 381.147,349.673 387.147,346.34 393.5,343.5C 395.815,344.234 397.648,345.568 399,347.5C 399.333,354.5 399.667,361.5 400,368.5C 422.925,355.286 446.092,342.453 469.5,330C 470.171,329.014 470.171,327.847 469.5,326.5C 469.334,318.16 469.5,309.827 470,301.5C 470.785,299.714 471.951,298.214 473.5,297C 466.812,299.166 460.146,301.666 453.5,304.5C 451.807,303.525 450.307,302.192 449,300.5C 429.384,273.883 409.384,247.549 389,221.5C 388.383,220.551 388.549,219.718 389.5,219C 391.898,217.476 394.231,215.976 396.5,214.5 Z"/></g>
<g><path style="opacity:1" fill="#fefaf9" d="M 489.5,290.5 C 490.822,290.33 491.989,290.663 493,291.5C 493.667,299.167 493.667,306.833 493,314.5C 488.93,319.638 483.763,323.471 477.5,326C 476.167,326.667 474.833,326.667 473.5,326C 472.353,318.58 472.187,311.08 473,303.5C 474.122,301.376 475.622,299.543 477.5,298C 481.732,295.725 485.732,293.225 489.5,290.5 Z"/></g>
<g><path style="opacity:1" fill="#8c2e01" d="M 469.5,326.5 C 463.68,319.529 458.347,312.196 453.5,304.5C 460.146,301.666 466.812,299.166 473.5,297C 471.951,298.214 470.785,299.714 470,301.5C 469.5,309.827 469.334,318.16 469.5,326.5 Z"/></g>
<g><path style="opacity:1" fill="#2e363c" d="M 322.5,410.5 C 314.689,415.241 306.689,419.741 298.5,424C 291.404,424.893 284.738,423.56 278.5,420C 261.267,406.244 250.933,388.41 247.5,366.5C 246.3,355.939 247.967,345.939 252.5,336.5C 257.004,330.415 263.004,327.915 270.5,329C 280.366,331.859 288.533,337.359 295,345.5C 308.228,362.522 314.228,381.855 313,403.5C 316.569,405.51 319.736,407.843 322.5,410.5 Z"/></g>
<g><path style="opacity:1" fill="#25292d" d="M 499.5,343.5 C 500.647,347.646 500.814,351.98 500,356.5C 469.807,386.804 433.973,407.804 392.5,419.5C 391.167,414.833 391.167,410.167 392.5,405.5C 434.514,395.341 470.181,374.674 499.5,343.5 Z"/></g>
<g><path style="opacity:1" fill="#fff5f2" d="M 392.5,347.5 C 394.017,347.511 395.184,348.177 396,349.5C 396.896,357.246 396.563,364.913 395,372.5C 390.023,377.586 384.19,381.586 377.5,384.5C 376.522,384.023 375.689,383.357 375,382.5C 374.333,375.5 374.333,368.5 375,361.5C 375.792,359.413 376.959,357.579 378.5,356C 383.397,353.392 388.063,350.559 392.5,347.5 Z"/></g>
<g><path style="opacity:1" fill="#c9c9c9" d="M 270.5,352.5 C 277.753,352.71 283.586,355.71 288,361.5C 296.096,371.859 298.096,383.192 294,395.5C 288.784,400.593 283.284,400.759 277.5,396C 267.171,386.015 263.004,373.848 265,359.5C 266.666,357.004 268.5,354.671 270.5,352.5 Z"/></g>
<g><path style="opacity:1" fill="#892e02" d="M 375.5,353.5 C 374.093,355.308 372.926,357.308 372,359.5C 371.832,367.521 371.332,375.521 370.5,383.5C 362.474,378.152 354.807,372.319 347.5,366C 355.713,362.392 363.713,358.558 371.5,354.5C 372.833,354.167 374.167,353.833 375.5,353.5 Z"/></g>
<g><path style="opacity:1" fill="#647782" d="M 274.5,363.5 C 283.606,365.322 288.272,370.989 288.5,380.5C 288.286,388.887 284.619,390.721 277.5,386C 271.353,378.988 270.353,371.488 274.5,363.5 Z"/></g>
</svg>